# xmcd
#
# Track frame offsets:
#	150
#	11422
#	25200
#	40337
#	53652
#	66256
#	82191
#	98284
#	114166
#	124658
#	140516
#	157226
#	170761
#	182670
#	197670
#	210776
#	228217
#	243634
#	262560
#	278495
#	291213
#	303831
#
# Disc length: 4239 seconds
#
# Revision: 0
# Processed by: cddbd v1.5.2PL0 Copyright (c) Steve Scherf et al.
# Submitted via: EasyCDDAExtractor 15.3.0.1
#
DISCID=20108d16
DTITLE=Dedim Golveia - Recordando O Passado 2
DYEAR=2012
DGENRE=GAFIEIRA
TTITLE0=Quem És Tu
TTITLE1=Eu Não Sou Cachorro Não
TTITLE2=Eu Não Sou Brinquedo
TTITLE3=Eu Te Vejo Ressonando
TTITLE4=Meu Coração Está Em Greve
TTITLE5=Pijama De Madeira
TTITLE6=Reu Confesso
TTITLE7=Agora Sim
TTITLE8=Você Vegeta
TTITLE9=Flagrei
TTITLE10=Pout-Pourri_Se Meu Amor Não Chegar . Eu Lhe Peguei No Flagra . Meu Co
TTITLE10=frinho De Amor
TTITLE11=Sentada No Cabaré
TTITLE12=Espelho Do Meu Quarto
TTITLE13=Quando Faz Amor Comigo
TTITLE14=Garçom
TTITLE15=Tarimba De Bambu
TTITLE16=Andrajos
TTITLE17=A Mulher Que Eu Amei
TTITLE18=Placa De Venda
TTITLE19=Entre Espumas
TTITLE20=Triste Madrugada
TTITLE21=Está Chegando A Hora
EXTD=
EXTT0=
EXTT1=
EXTT2=
EXTT3=
EXTT4=
EXTT5=
EXTT6=
EXTT7=
EXTT8=
EXTT9=
EXTT10=
EXTT11=
EXTT12=
EXTT13=
EXTT14=
EXTT15=
EXTT16=
EXTT17=
EXTT18=
EXTT19=
EXTT20=
EXTT21=
PLAYORDER=
